<svg xmlns="http://www.w3.org/2000/svg" viewBox="0 0 512 512" fill="none">
  <defs>
    <linearGradient id="bg" x1="0" y1="0" x2="512" y2="512" gradientUnits="userSpaceOnUse">
      <stop offset="0%" stop-color="#12122a"/>
      <stop offset="100%" stop-color="#0d0d1a"/>
    </linearGradient>
    <radialGradient id="glow" cx="50%" cy="48%" r="52%">
      <stop offset="0%" stop-color="#9b7fe8" stop-opacity="0.5"/>
      <stop offset="100%" stop-color="#9b7fe8" stop-opacity="0"/>
    </radialGradient>
    <linearGradient id="heart" x1="256" y1="150" x2="256" y2="390" gradientUnits="userSpaceOnUse">
      <stop offset="0%" stop-color="#d2beff"/>
      <stop offset="45%" stop-color="#9b7fe8"/>
      <stop offset="100%" stop-color="#6c4ec6"/>
    </linearGradient>
    <linearGradient id="shine" x1="220" y1="170" x2="300" y2="250" gradientUnits="userSpaceOnUse">
      <stop offset="0%" stop-color="#ffffff" stop-opacity="0.35"/>
      <stop offset="100%" stop-color="#ffffff" stop-opacity="0"/>
    </linearGradient>
  </defs>
  <rect width="512" height="512" rx="108" fill="url(#bg)"/>
  <rect width="512" height="512" rx="108" fill="url(#glow)"/>
  <path fill="url(#heart)" d="M256 392c-72-48-120-88-120-148 0-44 32-76 76-76 28 0 44 14 56 28 12-14 28-28 56-28 44 0 76 32 76 76 0 60-48 100-120 148z"/>
  <path fill="url(#shine)" d="M256 392c-72-48-120-88-120-148 0-44 32-76 76-76 28 0 44 14 56 28 12-14 28-28 56-28 44 0 76 32 76 76 0 60-48 100-120 148z" opacity="0.45"/>
</svg>